<?xml version="1.0" encoding="utf-8"?>
<!-- Generator: Adobe Illustrator 24.3.0, SVG Export Plug-In . SVG Version: 6.00 Build 0)  -->
<svg version="1.1" id="Layer_1" xmlns="http://www.w3.org/2000/svg" xmlns:xlink="http://www.w3.org/1999/xlink" x="0px" y="0px"
	 viewBox="0 0 80 80" style="enable-background:new 0 0 80 80;" xml:space="preserve">
<style type="text/css">
	.st0{fill:#FFFFFF;fill-opacity:0;stroke:#FFFFFF;stroke-miterlimit:10;}
</style>
<path class="st0" d="M23.2,11.3c-2.8,0-5,2.2-5,5v50c0,2.8,2.2,5,5,5h50c2.8,0,5-2.2,5-5v-50c0-2.8-2.2-5-5-5H23.2z"/>
<path class="st0" d="M23.2,13.3h50c1.7,0,3,1.3,3,3v50c0,1.7-1.3,3-3,3h-50c-1.7,0-3-1.3-3-3v-50C20.2,14.7,21.5,13.3,23.2,13.3z"/>
<path class="st0" d="M32.1,19.3c-3.3,0-6,2.7-6,6c0,3.3,2.7,6,6,6c3.3,0,6-2.7,6-6C38,22,35.3,19.3,32.1,19.3z"/>
<circle class="st0" cx="44.2" cy="20.3" r="1"/>
<circle class="st0" cx="48.2" cy="20.3" r="1"/>
<circle class="st0" cx="52.2" cy="20.3" r="1"/>
<circle class="st0" cx="56.2" cy="20.3" r="1"/>
<circle class="st0" cx="60.2" cy="20.3" r="1"/>
<circle class="st0" cx="64.2" cy="20.3" r="1"/>
<circle class="st0" cx="68.2" cy="20.3" r="1"/>
<path class="st0" d="M32.1,21.3c2.2,0,4,1.8,4,4c0,2.2-1.8,4-4,4c-2.2,0-4-1.8-4-4C28.1,23.1,29.8,21.3,32.1,21.3L32.1,21.3z"/>
<path class="st0" d="M58.3,32.4c-3.2,0-5.6,1.2-7.3,2.8v-2.1H40.8v29.7h10.6V48.1c0-1.7,0.2-3.4,0.8-4.4c0.6-1.1,1.4-1.7,3.4-1.7
	c1.9,0,2.5,0.7,3,1.8c0.5,1.2,0.5,2.9,0.5,4.5v14.5h9.6v-2l1,1V46.6c0-3.8-0.4-7.3-2-9.9C65.9,34,62.8,32.4,58.3,32.4z"/>
<rect x="26.7" y="33.1" class="st0" width="10.6" height="29.7"/>
<path class="st0" d="M58.3,34.4c4.1,0,6.3,1.2,7.6,3.3c1.3,2.1,1.7,5.2,1.7,8.9v14.2H61V48.3c0-1.6,0-3.5-0.7-5.2
	c-0.7-1.7-2.3-3.1-4.8-3.1c-2.5,0-4.3,1.1-5.1,2.7c-0.9,1.6-1,3.5-1,5.4v12.7h-6.6V35.1H49v3.8h1.7l0.3-0.5
	C52,36.5,54.4,34.4,58.3,34.4L58.3,34.4z"/>
<rect x="28.7" y="35.1" class="st0" width="6.6" height="25.7"/>
</svg>
